<svg width="32" height="33" viewBox="0 0 32 33" fill="none" xmlns="http://www.w3.org/2000/svg">
<g id="vuesax/bold/arrow-circle-right">
<g id="vuesax/bold/arrow-circle-right_2">
<g id="arrow-circle-right">
<path id="Vector" d="M16.0003 2.71245C8.65366 2.71245 2.66699 8.69911 2.66699 16.0458C2.66699 23.3924 8.65366 29.3791 16.0003 29.3791C23.347 29.3791 29.3337 23.3924 29.3337 16.0458C29.3337 8.69911 23.347 2.71245 16.0003 2.71245ZM19.7203 16.7524L15.0137 21.4591C14.8137 21.6591 14.5603 21.7524 14.307 21.7524C14.0537 21.7524 13.8003 21.6591 13.6003 21.4591C13.2137 21.0724 13.2137 20.4324 13.6003 20.0458L17.6003 16.0458L13.6003 12.0458C13.2137 11.6591 13.2137 11.0191 13.6003 10.6324C13.987 10.2458 14.627 10.2458 15.0137 10.6324L19.7203 15.3391C20.1203 15.7258 20.1203 16.3658 19.7203 16.7524Z" fill="white"/>
</g>
</g>
</g>
</svg>
