<svg width="32" height="33" viewBox="0 0 32 33" fill="none" xmlns="http://www.w3.org/2000/svg">
<g id="vuesax/bold/arrow-circle-left">
<g id="vuesax/bold/arrow-circle-left_2">
<g id="arrow-circle-left">
<path id="Vector" d="M16.0003 2.71245C8.65366 2.71245 2.66699 8.69911 2.66699 16.0458C2.66699 23.3924 8.65366 29.3791 16.0003 29.3791C23.347 29.3791 29.3337 23.3924 29.3337 16.0458C29.3337 8.69911 23.347 2.71245 16.0003 2.71245ZM18.387 20.0458C18.7737 20.4324 18.7737 21.0724 18.387 21.4591C18.187 21.6591 17.9337 21.7524 17.6803 21.7524C17.427 21.7524 17.1737 21.6591 16.9737 21.4591L12.267 16.7524C11.8803 16.3658 11.8803 15.7258 12.267 15.3391L16.9737 10.6324C17.3603 10.2458 18.0003 10.2458 18.387 10.6324C18.7737 11.0191 18.7737 11.6591 18.387 12.0458L14.387 16.0458L18.387 20.0458Z" fill="white"/>
</g>
</g>
</g>
</svg>
