<svg width="50" height="51" viewBox="0 0 50 51" fill="none" xmlns="http://www.w3.org/2000/svg">
<g id="Group">
<circle id="Ellipse 3" cx="25" cy="25.5458" r="25" fill="white"/>
<path id="Vector" d="M25 0.545776C11.1937 0.545776 0 11.7395 0 25.5458C0 39.352 11.1937 50.5458 25 50.5458C38.8063 50.5458 50 39.352 50 25.5458C50 11.7395 38.8063 0.545776 25 0.545776ZM38.1875 17.5098C38.0719 17.7036 37.4781 18.3833 36.8438 19.0036C35.7687 20.0708 35.7109 20.1864 35.7109 21.0802C35.7109 22.4567 35.0594 25.3302 34.4062 26.9005C33.1969 29.8505 30.6063 32.8973 28.0141 34.4317C24.3672 36.5848 19.5109 37.1302 15.4219 35.8677C14.0594 35.4395 11.7172 34.3536 11.7172 34.1598C11.7172 34.1005 12.4266 34.0239 13.2922 34.0036C15.0969 33.9661 16.9016 33.463 18.4359 32.5676L19.4719 31.9458L18.2812 31.5395C16.5922 30.9567 15.0766 29.6177 14.6922 28.3567C14.5766 27.9489 14.6156 27.9286 15.6891 27.9286L16.8016 27.9098L15.8609 27.463C14.7469 26.8989 13.7297 25.9505 13.2313 24.9786C12.8672 24.2802 12.4062 22.5145 12.5406 22.3786C12.5797 22.3208 12.9828 22.438 13.4422 22.5927C14.7656 23.0786 14.9391 22.9614 14.1719 22.1458C12.7328 20.6708 12.2906 18.4786 12.9812 16.402L13.3078 15.4708L14.575 16.7317C17.1672 19.2739 20.2188 20.788 23.7109 21.2333L24.6703 21.3489L24.6125 20.3973C24.4406 17.9333 25.9563 15.6817 28.3563 14.8083C29.2391 14.4973 30.7375 14.4598 31.7156 14.7302C32.1 14.8458 32.8281 15.2348 33.3469 15.5833L34.2875 16.2239L35.3234 15.8927C35.9 15.7192 36.6672 15.427 37.0125 15.2333C37.3391 15.0583 37.6266 14.9614 37.6266 15.0192C37.6266 15.3489 36.9156 16.4755 36.3219 17.0958C35.5141 17.9692 35.7453 18.0473 37.3766 17.4645C38.3594 17.1411 38.3797 17.1411 38.1875 17.5098Z" fill="#D29191"/>
</g>
</svg>
