<svg width="80" height="80" viewBox="0 0 80 80" fill="none" xmlns="http://www.w3.org/2000/svg">
<g id="loading" clip-path="url(#clip0_952_1108)">
<g id="Gray">
<path id="Vector" d="M38.7344 0.28126C38.5156 0.40626 38.1562 0.765635 37.9531 1.06251L37.5781 1.62501V7.28126C37.5781 12.7813 37.5938 12.9531 37.9062 13.3906C38.5312 14.2344 39.2031 14.5625 40.125 14.5C41 14.4219 41.5469 14.1094 42.0938 13.375C42.4062 12.9688 42.4219 12.7188 42.4688 7.60938C42.5 4.14063 42.4531 2.06251 42.3594 1.70313C42.25 1.37501 41.9062 0.890635 41.5625 0.56251C40.9844 0.0468845 40.8594 9.53674e-06 40.0312 0.0156345C39.5156 0.0156345 38.9688 0.12501 38.7344 0.28126Z" fill="#D29191"/>
<path id="Vector_2" d="M57.5623 5.29688C56.9217 5.6875 56.8436 5.8125 53.9998 10.7344C51.8123 14.5469 51.5623 15.0781 51.5467 15.75C51.5155 17.1719 52.3905 18.1406 53.8123 18.2344C55.203 18.3281 55.5936 17.9688 57.2342 15.1563C57.9998 13.8281 59.203 11.75 59.8905 10.5625C61.3592 8.03125 61.5311 7.26562 60.9061 6.1875C60.2498 5.07812 58.6405 4.64062 57.5623 5.29688Z" fill="#D29191"/>
</g>
<g id="Silver">
<path id="Vector_3" d="M20.0469 5.28125C19.1719 5.75 18.8281 6.35937 18.8281 7.42187C18.8281 8.32812 18.8906 8.45312 20.25 10.7812C21.0156 12.1094 22.1719 14.0781 22.7812 15.1562C24.1406 17.5 24.1562 17.5312 24.8438 17.9531C25.9062 18.5937 27.3594 18.25 28.0938 17.1875C28.3438 16.8125 28.4375 16.4531 28.4375 15.8125C28.4375 15.0156 28.3281 14.7812 26.3125 11.2656C23.2031 5.89062 23.1562 5.8125 22.5312 5.39062C21.8438 4.92187 20.7969 4.875 20.0469 5.28125Z" fill="#EAB3B3"/>
<path id="Vector_4" d="M6.46879 18.8906C5.89066 19.1406 5.17191 20 5.06254 20.5625C4.78129 22.0312 5.29691 22.8437 7.23441 23.9687C15.25 28.625 14.7032 28.3281 15.7032 28.4062C16.5 28.4531 16.7188 28.4062 17.1719 28.0937C18.25 27.3594 18.5938 25.9062 17.9532 24.8437C17.5313 24.1719 17.4375 24.0937 15.7032 23.0937C14.9375 22.6562 12.9688 21.5156 11.3282 20.5625C8.78129 19.0937 8.25004 18.8437 7.57816 18.7969C7.15629 18.7812 6.65629 18.8125 6.46879 18.8906Z" fill="#EAB3B3"/>
<path id="Vector_5" d="M1.32812 37.8125C0.359375 38.3125 0.078125 38.7969 0.078125 40C0.078125 41.2031 0.375 41.7031 1.34375 42.1875C1.96875 42.5 2.21875 42.5156 7.46875 42.4687C12.75 42.4219 12.9688 42.4062 13.3906 42.0937C14.9219 40.9531 14.9219 39.0469 13.3906 37.9062C12.9688 37.5937 12.75 37.5781 7.45312 37.5312C2.17188 37.5 1.92188 37.5 1.32812 37.8125Z" fill="#EAB3B3"/>
</g>
<g id="LightGray">
<path id="Vector_6" d="M13.5934 52.3594C12.859 52.7969 11.8746 53.375 11.3902 53.6562C5.359 57.0625 5.14025 57.2187 5.0465 58.6406C4.93712 60.2031 6.0465 61.3281 7.57775 61.2031C8.234 61.1562 8.859 60.8594 11.5621 59.2969C13.3277 58.2812 15.3902 57.0781 16.1559 56.6406C17.734 55.7187 18.2809 55.0312 18.2809 53.9844C18.2809 52.5625 17.2496 51.5625 15.7965 51.5625C15.0309 51.5781 14.7652 51.6719 13.5934 52.3594Z" fill="#F7DDDD"/>
<path id="Vector_7" d="M24.7655 62.0938C24.2499 62.4062 23.9061 62.875 22.9061 64.6406C22.2186 65.8281 21.0311 67.8906 20.2499 69.2188C18.6717 71.9531 18.453 72.7031 19.0311 73.75C19.6092 74.8125 21.0624 75.2813 22.2342 74.7813C22.8905 74.5156 23.0936 74.2656 24.0624 72.5781C28.7655 64.4375 28.4374 65.0625 28.4374 64.1562C28.4374 62.2031 26.4374 61.0938 24.7655 62.0938Z" fill="#F7DDDD"/>
<path id="Vector_8" d="M38.7495 65.8125C38.4683 66.0156 38.0777 66.375 37.9058 66.6094C37.5933 67.0312 37.5777 67.25 37.5308 72.5312C37.4839 77.75 37.4995 78.0312 37.7964 78.6562C38.2495 79.5625 38.9527 80 39.9839 80C41.062 80 41.7495 79.5938 42.187 78.6875C42.4995 78.0312 42.5152 77.8281 42.4683 72.5312C42.4214 67.25 42.4058 67.0312 42.0933 66.6094C41.5464 65.8594 40.812 65.4688 39.9995 65.4688C39.4995 65.4688 39.1089 65.5781 38.7495 65.8125Z" fill="#F7DDDD"/>
</g>
<g id="LightGray_2">
<path id="Vector_9" d="M66.7813 37.8125C65.0469 38.6719 65.0469 41.3438 66.7969 42.1875C67.4063 42.4844 67.7656 42.5 72.7969 42.5C77.7969 42.5 78.1719 42.4844 78.7344 42.1875C79.5781 41.7656 80 41.0312 80 39.9844C80 38.9375 79.6094 38.25 78.7656 37.8125C78.1719 37.5156 77.8594 37.5 72.7813 37.5C67.7188 37.5 67.3906 37.5156 66.7813 37.8125Z" fill="#ECECEC"/>
<path id="Vector_10" d="M63.344 51.6563C62.2034 52.0469 61.6096 53.0312 61.7659 54.2969C61.9065 55.6094 61.844 55.5625 70.1252 60.2813C71.8127 61.2344 71.9534 61.2813 72.719 61.2188C74.1565 61.0938 75.0002 60.1875 75.0002 58.75C75.0002 57.4375 74.6096 57.0469 71.6409 55.3594C70.4377 54.6719 68.5002 53.5625 67.344 52.8906C65.0627 51.5625 64.2971 51.3281 63.344 51.6563Z" fill="#ECECEC"/>
<path id="Vector_11" d="M52.9688 61.8906C52.0625 62.2656 51.5312 63.125 51.5312 64.2188C51.5312 64.8281 51.6875 65.2344 52.4531 66.5781C56.9844 74.5312 56.8906 74.3594 57.7188 74.7969C58.3438 75.125 59.6562 75 60.2656 74.5625C60.875 74.125 61.25 73.3438 61.25 72.4688C61.25 71.9063 61.0469 71.4219 59.9844 69.6094C59.2969 68.4063 58.0938 66.3125 57.3125 64.9531C56.4219 63.4062 55.7344 62.375 55.4219 62.1562C54.8906 61.7656 53.5781 61.625 52.9688 61.8906Z" fill="#ECECEC"/>
</g>
</g>
<defs>
<clipPath id="clip0_952_1108">
<rect width="80" height="80" fill="white"/>
</clipPath>
</defs>
</svg>
