<svg width="50" height="51" viewBox="0 0 50 51" fill="none" xmlns="http://www.w3.org/2000/svg">
<g id="OUTLINE_copy_2">
<circle id="Ellipse 3" cx="25" cy="25.5458" r="25" fill="white"/>
<g id="Group">
<path id="Vector" d="M25 0.545776C11.1937 0.545776 0 11.7395 0 25.5458C0 39.352 11.1937 50.5458 25 50.5458C38.8063 50.5458 50 39.352 50 25.5458C50 11.7395 38.8063 0.545776 25 0.545776ZM30.45 25.5442H26.9516V38.238H21.7063V25.5458H19.0859V21.1708H21.7063V18.5442C21.7063 14.9755 23.1859 12.8536 27.3891 12.8536H30.8891V17.2286H28.7016C27.0656 17.2286 26.9563 17.8411 26.9563 18.9802L26.9516 21.1708H30.9141L30.45 25.5442Z" fill="#D29191"/>
</g>
</g>
</svg>
