<svg width="50" height="51" viewBox="0 0 50 51" fill="none" xmlns="http://www.w3.org/2000/svg">
<g id="Whatsapp" clip-path="url(#clip0_952_758)">
<path id="Vector" d="M50 25.5458C50 11.7387 38.8071 0.545776 25 0.545776C11.1929 0.545776 0 11.7387 0 25.5458C0 39.3529 11.1929 50.5458 25 50.5458C38.8071 50.5458 50 39.3529 50 25.5458Z" fill="#D29191"/>
<path id="Vector_2" d="M36.1986 14.3078C33.5184 11.5487 29.8135 10.051 26.0296 10.051C17.9891 10.051 11.5251 16.5938 11.604 24.5555C11.604 27.078 12.3135 29.5217 13.4959 31.7289L11.4463 39.2177L19.0927 37.2469C21.2211 38.4293 23.586 38.9812 25.9508 38.9812C33.9125 38.9812 40.3765 32.4384 40.3765 24.4766C40.3765 20.614 38.8788 16.988 36.1986 14.3078ZM26.0296 36.5375C23.9013 36.5375 21.7729 35.9857 19.9598 34.882L19.4868 34.6456L14.9148 35.828L16.0972 31.3347L15.7819 30.8618C12.3135 25.265 13.9688 17.8551 19.6445 14.3866C25.3201 10.9181 32.6513 12.5735 36.1197 18.2492C39.5882 23.9248 37.9329 31.256 32.2571 34.7244C30.4441 35.9068 28.2368 36.5375 26.0296 36.5375ZM32.9666 27.7875L32.0995 27.3933C32.0995 27.3933 30.8382 26.8415 30.0499 26.4473C29.9711 26.4473 29.8922 26.3686 29.8135 26.3686C29.5769 26.3686 29.4193 26.4473 29.2616 26.5262C29.2616 26.5262 29.1829 26.6051 28.0792 27.8663C28.0004 28.024 27.8427 28.1028 27.685 28.1028H27.6062C27.5274 28.1028 27.3697 28.024 27.2909 27.9452L26.8968 27.7875C26.0296 27.3933 25.2414 26.9204 24.6108 26.2897C24.4531 26.132 24.2166 25.9744 24.0589 25.8167C23.5071 25.265 22.9554 24.6343 22.5612 23.9248L22.4823 23.7672C22.4035 23.6884 22.4035 23.6095 22.3247 23.4519C22.3247 23.2942 22.3247 23.1366 22.4035 23.0578C22.4035 23.0578 22.7188 22.6636 22.9554 22.4271C23.113 22.2694 23.1918 22.033 23.3495 21.8754C23.5071 21.6388 23.586 21.3235 23.5071 21.087C23.4283 20.6929 22.4823 18.5645 22.2459 18.0915C22.0882 17.8551 21.9306 17.7762 21.6941 17.6973H21.4575C21.2999 17.6973 21.0635 17.6973 20.8269 17.6973C20.6693 17.6973 20.5116 17.7762 20.354 17.7762L20.2751 17.8551C20.1174 17.9339 19.9598 18.0915 19.8021 18.1704C19.6445 18.328 19.5657 18.4857 19.4081 18.6433C18.8562 19.3528 18.5409 20.22 18.5409 21.087C18.5409 21.7177 18.6986 22.3483 18.935 22.9001L19.0139 23.1366C19.7234 24.6343 20.6693 25.9744 21.9306 27.1568L22.2459 27.4721C22.4823 27.7087 22.7188 27.8663 22.8765 28.1028C24.5319 29.5217 26.4238 30.5465 28.5521 31.0983C28.7887 31.1771 29.104 31.1771 29.3405 31.256C29.5769 31.256 29.8922 31.256 30.1288 31.256C30.5229 31.256 30.9959 31.0983 31.3112 30.9407C31.5476 30.783 31.7054 30.783 31.863 30.6254L32.0207 30.4677C32.1783 30.31 32.336 30.2312 32.4936 30.0735C32.6513 29.9159 32.8089 29.7582 32.8878 29.6006C33.0455 29.2853 33.1242 28.8911 33.2031 28.4969C33.2031 28.3393 33.2031 28.1028 33.2031 27.9452C33.2031 27.9452 33.1242 27.8663 32.9666 27.7875Z" fill="white"/>
</g>
<defs>
<clipPath id="clip0_952_758">
<rect width="50" height="50" fill="white" transform="translate(0 0.545776)"/>
</clipPath>
</defs>
</svg>
